# xmcd
#
# Track frame offsets: 
#        150
#        15927
#        34352
#        54620
#        75337
#        91045
#        117452
#        139022
#        159672
#        178712
#        199372
#        211180
#
# Disc length: 3119 seconds
#
# Revision: 4
# Processed by: cddbd v1.5.2PL0 Copyright (c) Steve Scherf et al.
# Submitted via: ExactAudioCopy v1.0b3
#
DISCID=990c2d0c
DTITLE=谭咏麟 - 第一滴淚
DYEAR=1986
DGENRE=Pop
TTITLE0=世界停頓
TTITLE1=第一滴淚
TTITLE2=的士司機
TTITLE3=永不想您
TTITLE4=最佳福星
TTITLE5=和平之歌
TTITLE6=舊信紙
TTITLE7=刺客
TTITLE8=珍重
TTITLE9=夢想的幻彩
TTITLE10=衝線
TTITLE11=無言感激
EXTD=YEAR: 1986
EXTT0=
EXTT1=
EXTT2=
EXTT3=
EXTT4=
EXTT5=
EXTT6=
EXTT7=
EXTT8=
EXTT9=
EXTT10=
EXTT11=
PLAYORDER=
